<?xml version="1.0" encoding="utf-8"?>
<svg width="244.38293px" height="243.77232px" viewBox="0 0 244.38293 243.77232" version="1.1" xmlns:xlink="http://www.w3.org/1999/xlink" xmlns="http://www.w3.org/2000/svg">
  <defs>
    <radialGradient gradientUnits="objectBoundingBox" cx="49.999985%" cy="49.99999%" fx="49.999985%" fy="49.99999%" r="50.150784%" gradientTransform="translate(0.49999985,0.49999988),scale(0.99699193,1),scale(1,0.999086),translate(-0.49999985,-0.49999988)" id="gradient_1">
      <stop offset="0%" stop-color="#FFFFFF" stop-opacity="0" />
      <stop offset="100%" stop-color="#B018C0" stop-opacity="0.45882353" />
    </radialGradient>
    <path d="M0 0L244.383 0L244.383 243.772L0 243.772L0 0Z" id="path_1" />
    <clipPath id="mask_1">
      <use xlink:href="#path_1" />
    </clipPath>
  </defs>
  <g id="Logo" transform="translate(0 -0.00015258789)">
    <g id="logo_circle_black" transform="translate(-1.4918595E-05 0.00015259505)">
      <path d="M0 0L244.383 0L244.383 243.772L0 243.772L0 0Z" id="Background" fill="#FFFFFF" fill-opacity="0" fill-rule="evenodd" stroke="none" />
      <g clip-path="url(#mask_1)">
        <path d="M37.5392 209.676C-11.0739 163.116 -12.6827 86.1 33.9437 37.5615C80.5701 -10.9769 157.816 -12.6995 206.572 33.7118C255.329 80.1232 257.176 157.133 210.699 205.815C164.223 254.496 86.9835 256.456 38.0837 210.195" id="path838" fill="url(#gradient_1)" fill-rule="evenodd" stroke="none" />
        <path d="M140.505 140.445L227.44 140.445L227.44 180.774L140.505 180.774L140.505 140.445Z" id="rect849" fill="#FFFFFF" fill-rule="evenodd" stroke="none" />
        <path d="M54.2342 30.6501C89.2918 95.2967 121.993 169.541 122.191 243.772C186.973 243.772 243.887 190.332 244.14 129.597L225.595 129.488C208.831 89.6165 172.853 60.6931 136.437 38.7476C133.236 37.2821 120.303 30.5795 122.85 32.1988C148.677 58.7369 163.927 93.5578 172.42 129.167C166.111 130.658 157.659 133.401 150.915 123.784C126.27 85.8848 89.7867 57.7563 54.2342 30.6501L54.2342 30.6501ZM54.4082 104.019C53.9181 123.649 43.399 144.604 22.696 147.467C10.1347 149.23 12.7519 148.154 23.7707 149.998C44.8556 153.487 53.2562 176.436 53.092 195.573C53.549 191.547 53.491 186.973 54.3848 182.542C55.7256 164.536 71.0913 150.354 89.0071 150.047C103.078 149.359 92.5124 150.129 84.3525 148.213C63.8068 144.818 54.591 123.626 54.4082 104.019L54.4082 104.019ZM194.18 145.254C205.402 147.226 215.266 153.607 223.67 161.038C214.869 168.63 204.323 175.099 192.791 176.887C198.829 174.029 202.345 167.312 202.284 160.782C202.905 154.671 197.993 147.634 194.18 145.254L194.18 145.254ZM179.064 145.581C167.451 152.52 169.436 172.333 181.078 177.131C169.764 175.785 159.603 169.767 151.11 162.455C158.863 154.708 168.18 147.972 179.064 145.581L179.064 145.581Z" id="layer2" fill="#B018C0" fill-rule="evenodd" stroke="none" />
      </g>
    </g>
  </g>
</svg>